<svg xmlns="http://www.w3.org/2000/svg" viewBox="0 0 300 300" width="300" height="300">
      <g id="cell-blink">
        
    <!-- Ears / Tuft -->
    <path d="M 26 28 L 16 12 L 36 22 Z" fill="#047857" />
    <path d="M 74 28 L 84 12 L 64 22 Z" fill="#047857" />
    <!-- Main Head / Body -->
    <ellipse cx="50" cy="50" rx="36" ry="34" fill="#10b981" />
    <ellipse cx="50" cy="56" rx="28" ry="24" fill="#ecfdf5" />
    <!-- Graduation Cap / Scholar Hat -->
    <polygon points="50,12 74,20 50,28 26,20" fill="#0f172a" />
    <rect x="42" y="25" width="16" height="6" rx="2" fill="#1e293b" />
    <circle cx="50" cy="20" r="2.5" fill="#f59e0b" />
    <path d="M 50 20 Q 68 22 70 34" stroke="#f59e0b" stroke-width="2" fill="none" />
    <circle cx="70" cy="34" r="2" fill="#f59e0b" />
    <!-- Cheeks Blush -->
    <ellipse cx="30" cy="62" rx="5" ry="3" fill="#f43f5e" opacity="0.35" />
    <ellipse cx="70" cy="62" rx="5" ry="3" fill="#f43f5e" opacity="0.35" />
    <!-- Beak -->
    <polygon points="50,64 45,57 55,57" fill="#f59e0b" />
  
        
          <!-- Happy closed curved eyes -->
          <path d="M 32 54 Q 38 46 44 54" stroke="#0f172a" stroke-width="3" stroke-linecap="round" fill="none" />
          <path d="M 56 54 Q 62 46 68 54" stroke="#0f172a" stroke-width="3" stroke-linecap="round" fill="none" />
        
        
      </g>
    
      <g id="cell-heart">
        
    <!-- Ears / Tuft -->
    <path d="M 126 28 L 116 12 L 136 22 Z" fill="#047857" />
    <path d="M 174 28 L 184 12 L 164 22 Z" fill="#047857" />
    <!-- Main Head / Body -->
    <ellipse cx="150" cy="50" rx="36" ry="34" fill="#10b981" />
    <ellipse cx="150" cy="56" rx="28" ry="24" fill="#ecfdf5" />
    <!-- Graduation Cap / Scholar Hat -->
    <polygon points="150,12 174,20 150,28 126,20" fill="#0f172a" />
    <rect x="142" y="25" width="16" height="6" rx="2" fill="#1e293b" />
    <circle cx="150" cy="20" r="2.5" fill="#f59e0b" />
    <path d="M 150 20 Q 168 22 170 34" stroke="#f59e0b" stroke-width="2" fill="none" />
    <circle cx="170" cy="34" r="2" fill="#f59e0b" />
    <!-- Cheeks Blush -->
    <ellipse cx="130" cy="62" rx="5" ry="3" fill="#f43f5e" opacity="0.35" />
    <ellipse cx="170" cy="62" rx="5" ry="3" fill="#f43f5e" opacity="0.35" />
    <!-- Beak -->
    <polygon points="150,64 145,57 155,57" fill="#f59e0b" />
  
        
          <!-- Heart eyes -->
          <path d="M 138 56 C 138 56 131 50 131 47 C 131 43 136 43 138 48 C 140 43 145 43 145 47 C 145 50 138 56 Z" fill="#e11d48" />
          <path d="M 162 56 C 162 56 155 50 155 47 C 155 43 160 43 162 48 C 164 43 169 43 169 47 C 169 50 162 56 Z" fill="#e11d48" />
        
        
          <text x="172" y="38" font-size="12" fill="#f43f5e">♥</text>
        
      </g>
    
      <g id="cell-sparkle">
        
    <!-- Ears / Tuft -->
    <path d="M 226 28 L 216 12 L 236 22 Z" fill="#047857" />
    <path d="M 274 28 L 284 12 L 264 22 Z" fill="#047857" />
    <!-- Main Head / Body -->
    <ellipse cx="250" cy="50" rx="36" ry="34" fill="#10b981" />
    <ellipse cx="250" cy="56" rx="28" ry="24" fill="#ecfdf5" />
    <!-- Graduation Cap / Scholar Hat -->
    <polygon points="250,12 274,20 250,28 226,20" fill="#0f172a" />
    <rect x="242" y="25" width="16" height="6" rx="2" fill="#1e293b" />
    <circle cx="250" cy="20" r="2.5" fill="#f59e0b" />
    <path d="M 250 20 Q 268 22 270 34" stroke="#f59e0b" stroke-width="2" fill="none" />
    <circle cx="270" cy="34" r="2" fill="#f59e0b" />
    <!-- Cheeks Blush -->
    <ellipse cx="230" cy="62" rx="5" ry="3" fill="#f43f5e" opacity="0.35" />
    <ellipse cx="270" cy="62" rx="5" ry="3" fill="#f43f5e" opacity="0.35" />
    <!-- Beak -->
    <polygon points="250,64 245,57 255,57" fill="#f59e0b" />
  
        
          <!-- Sparkle eyes -->
          <path d="M 238 44 Q 238 52 246 52 Q 238 52 238 60 Q 238 52 230 52 Q 238 52 238 44 Z" fill="#f59e0b" />
          <path d="M 262 44 Q 262 52 270 52 Q 262 52 262 60 Q 262 52 254 52 Q 262 52 262 44 Z" fill="#f59e0b" />
        
        
          <text x="220" y="36" font-size="10" fill="#f59e0b">✦</text>
          <text x="272" y="38" font-size="10" fill="#f59e0b">✦</text>
        
      </g>
    
      <g id="cell-surprised">
        
    <!-- Ears / Tuft -->
    <path d="M 26 128 L 16 112 L 36 122 Z" fill="#047857" />
    <path d="M 74 128 L 84 112 L 64 122 Z" fill="#047857" />
    <!-- Main Head / Body -->
    <ellipse cx="50" cy="150" rx="36" ry="34" fill="#10b981" />
    <ellipse cx="50" cy="156" rx="28" ry="24" fill="#ecfdf5" />
    <!-- Graduation Cap / Scholar Hat -->
    <polygon points="50,112 74,120 50,128 26,120" fill="#0f172a" />
    <rect x="42" y="125" width="16" height="6" rx="2" fill="#1e293b" />
    <circle cx="50" cy="120" r="2.5" fill="#f59e0b" />
    <path d="M 50 120 Q 68 122 70 134" stroke="#f59e0b" stroke-width="2" fill="none" />
    <circle cx="70" cy="134" r="2" fill="#f59e0b" />
    <!-- Cheeks Blush -->
    <ellipse cx="30" cy="162" rx="5" ry="3" fill="#f43f5e" opacity="0.35" />
    <ellipse cx="70" cy="162" rx="5" ry="3" fill="#f43f5e" opacity="0.35" />
    <!-- Beak -->
    <polygon points="50,164 45,157 55,157" fill="#f59e0b" />
  
        
          <!-- Wide surprised eyes -->
          <circle cx="38" cy="152" r="11" fill="#ffffff" stroke="#047857" stroke-width="1.5" />
          <circle cx="38" cy="152" r="6" fill="#0f172a" />
          <circle cx="36" cy="150" r="2" fill="#ffffff" />
          <circle cx="62" cy="152" r="11" fill="#ffffff" stroke="#047857" stroke-width="1.5" />
          <circle cx="62" cy="152" r="6" fill="#0f172a" />
          <circle cx="60" cy="150" r="2" fill="#ffffff" />
          <!-- Open round mouth -->
          <ellipse cx="50" cy="167" rx="4" ry="5" fill="#e11d48" />
        
        
          <ellipse cx="24" cy="140" rx="3" ry="1.5" fill="#38bdf8" />
        
      </g>
    
      <g id="cell-wink">
        
    <!-- Ears / Tuft -->
    <path d="M 126 128 L 116 112 L 136 122 Z" fill="#047857" />
    <path d="M 174 128 L 184 112 L 164 122 Z" fill="#047857" />
    <!-- Main Head / Body -->
    <ellipse cx="150" cy="150" rx="36" ry="34" fill="#10b981" />
    <ellipse cx="150" cy="156" rx="28" ry="24" fill="#ecfdf5" />
    <!-- Graduation Cap / Scholar Hat -->
    <polygon points="150,112 174,120 150,128 126,120" fill="#0f172a" />
    <rect x="142" y="125" width="16" height="6" rx="2" fill="#1e293b" />
    <circle cx="150" cy="120" r="2.5" fill="#f59e0b" />
    <path d="M 150 120 Q 168 122 170 134" stroke="#f59e0b" stroke-width="2" fill="none" />
    <circle cx="170" cy="134" r="2" fill="#f59e0b" />
    <!-- Cheeks Blush -->
    <ellipse cx="130" cy="162" rx="5" ry="3" fill="#f43f5e" opacity="0.35" />
    <ellipse cx="170" cy="162" rx="5" ry="3" fill="#f43f5e" opacity="0.35" />
    <!-- Beak -->
    <polygon points="150,164 145,157 155,157" fill="#f59e0b" />
  
        
          <!-- Left Eye Winking -->
          <path d="M 132 152 L 143 152" stroke="#0f172a" stroke-width="3" stroke-linecap="round" />
          <!-- Right Eye Big & Happy -->
          <circle cx="162" cy="152" r="10" fill="#ffffff" stroke="#047857" stroke-width="1.5" />
          <circle cx="162" cy="152" r="5.5" fill="#0f172a" />
          <circle cx="160" cy="150" r="2" fill="#ffffff" />
        
        
          <text x="122" y="150" font-size="12" fill="#f59e0b">★</text>
        
      </g>
    
      <g id="cell-bashful">
        
    <!-- Ears / Tuft -->
    <path d="M 226 128 L 216 112 L 236 122 Z" fill="#047857" />
    <path d="M 274 128 L 284 112 L 264 122 Z" fill="#047857" />
    <!-- Main Head / Body -->
    <ellipse cx="250" cy="150" rx="36" ry="34" fill="#10b981" />
    <ellipse cx="250" cy="156" rx="28" ry="24" fill="#ecfdf5" />
    <!-- Graduation Cap / Scholar Hat -->
    <polygon points="250,112 274,120 250,128 226,120" fill="#0f172a" />
    <rect x="242" y="125" width="16" height="6" rx="2" fill="#1e293b" />
    <circle cx="250" cy="120" r="2.5" fill="#f59e0b" />
    <path d="M 250 120 Q 268 122 270 134" stroke="#f59e0b" stroke-width="2" fill="none" />
    <circle cx="270" cy="134" r="2" fill="#f59e0b" />
    <!-- Cheeks Blush -->
    <ellipse cx="230" cy="162" rx="5" ry="3" fill="#f43f5e" opacity="0.35" />
    <ellipse cx="270" cy="162" rx="5" ry="3" fill="#f43f5e" opacity="0.35" />
    <!-- Beak -->
    <polygon points="250,164 245,157 255,157" fill="#f59e0b" />
  
        
          <!-- Shy looking sideways eyes -->
          <circle cx="238" cy="152" r="9" fill="#ffffff" stroke="#047857" stroke-width="1.5" />
          <circle cx="235" cy="154" r="5" fill="#0f172a" />
          <circle cx="262" cy="152" r="9" fill="#ffffff" stroke="#047857" stroke-width="1.5" />
          <circle cx="259" cy="154" r="5" fill="#0f172a" />
        
        
          <!-- Extra Blush lines -->
          <ellipse cx="230" cy="162" rx="7" ry="4" fill="#f43f5e" opacity="0.6" />
          <ellipse cx="270" cy="162" rx="7" ry="4" fill="#f43f5e" opacity="0.6" />
        
      </g>
    
      <g id="cell-sleepy">
        
    <!-- Ears / Tuft -->
    <path d="M 26 228 L 16 212 L 36 222 Z" fill="#047857" />
    <path d="M 74 228 L 84 212 L 64 222 Z" fill="#047857" />
    <!-- Main Head / Body -->
    <ellipse cx="50" cy="250" rx="36" ry="34" fill="#10b981" />
    <ellipse cx="50" cy="256" rx="28" ry="24" fill="#ecfdf5" />
    <!-- Graduation Cap / Scholar Hat -->
    <polygon points="50,212 74,220 50,228 26,220" fill="#0f172a" />
    <rect x="42" y="225" width="16" height="6" rx="2" fill="#1e293b" />
    <circle cx="50" cy="220" r="2.5" fill="#f59e0b" />
    <path d="M 50 220 Q 68 222 70 234" stroke="#f59e0b" stroke-width="2" fill="none" />
    <circle cx="70" cy="234" r="2" fill="#f59e0b" />
    <!-- Cheeks Blush -->
    <ellipse cx="30" cy="262" rx="5" ry="3" fill="#f43f5e" opacity="0.35" />
    <ellipse cx="70" cy="262" rx="5" ry="3" fill="#f43f5e" opacity="0.35" />
    <!-- Beak -->
    <polygon points="50,264 45,257 55,257" fill="#f59e0b" />
  
        
          <!-- Half-closed droopy eyes -->
          <path d="M 32 254 Q 38 251 44 254" stroke="#0f172a" stroke-width="2.5" stroke-linecap="round" fill="none" />
          <path d="M 56 254 Q 62 251 68 254" stroke="#0f172a" stroke-width="2.5" stroke-linecap="round" fill="none" />
          <!-- Snot bubble / sleepy tear -->
          <circle cx="56" cy="262" r="4" fill="#bae6fd" opacity="0.8" />
        
        
          <text x="72" y="238" font-size="11" font-weight="bold" fill="#64748b">Z</text>
          <text x="78" y="230" font-size="9" font-weight="bold" fill="#94a3b8">z</text>
        
      </g>
    
      <g id="cell-dizzy">
        
    <!-- Ears / Tuft -->
    <path d="M 126 228 L 116 212 L 136 222 Z" fill="#047857" />
    <path d="M 174 228 L 184 212 L 164 222 Z" fill="#047857" />
    <!-- Main Head / Body -->
    <ellipse cx="150" cy="250" rx="36" ry="34" fill="#10b981" />
    <ellipse cx="150" cy="256" rx="28" ry="24" fill="#ecfdf5" />
    <!-- Graduation Cap / Scholar Hat -->
    <polygon points="150,212 174,220 150,228 126,220" fill="#0f172a" />
    <rect x="142" y="225" width="16" height="6" rx="2" fill="#1e293b" />
    <circle cx="150" cy="220" r="2.5" fill="#f59e0b" />
    <path d="M 150 220 Q 168 222 170 234" stroke="#f59e0b" stroke-width="2" fill="none" />
    <circle cx="170" cy="234" r="2" fill="#f59e0b" />
    <!-- Cheeks Blush -->
    <ellipse cx="130" cy="262" rx="5" ry="3" fill="#f43f5e" opacity="0.35" />
    <ellipse cx="170" cy="262" rx="5" ry="3" fill="#f43f5e" opacity="0.35" />
    <!-- Beak -->
    <polygon points="150,264 145,257 155,257" fill="#f59e0b" />
  
        
          <!-- Dizzy spiral eyes when clicked rapidly -->
          <circle cx="138" cy="252" r="10" fill="#ffffff" stroke="#047857" stroke-width="1.5" />
          <path d="M 138 252 m -2,-2 a 2,2 0 1,1 4,4 a 4,4 0 1,1 -7,-7 a 7,7 0 1,1 11,11" stroke="#6366f1" stroke-width="2" fill="none" stroke-linecap="round" />
          <circle cx="162" cy="252" r="10" fill="#ffffff" stroke="#047857" stroke-width="1.5" />
          <path d="M 162 252 m -2,-2 a 2,2 0 1,1 4,4 a 4,4 0 1,1 -7,-7 a 7,7 0 1,1 11,11" stroke="#6366f1" stroke-width="2" fill="none" stroke-linecap="round" />
        
        
          <text x="124" y="236" font-size="12" fill="#6366f1">@</text>
          <text x="172" y="236" font-size="12" fill="#6366f1">@</text>
        
      </g>
    
      <g id="cell-delighted">
        
    <!-- Ears / Tuft -->
    <path d="M 226 228 L 216 212 L 236 222 Z" fill="#047857" />
    <path d="M 274 228 L 284 212 L 264 222 Z" fill="#047857" />
    <!-- Main Head / Body -->
    <ellipse cx="250" cy="250" rx="36" ry="34" fill="#10b981" />
    <ellipse cx="250" cy="256" rx="28" ry="24" fill="#ecfdf5" />
    <!-- Graduation Cap / Scholar Hat -->
    <polygon points="250,212 274,220 250,228 226,220" fill="#0f172a" />
    <rect x="242" y="225" width="16" height="6" rx="2" fill="#1e293b" />
    <circle cx="250" cy="220" r="2.5" fill="#f59e0b" />
    <path d="M 250 220 Q 268 222 270 234" stroke="#f59e0b" stroke-width="2" fill="none" />
    <circle cx="270" cy="234" r="2" fill="#f59e0b" />
    <!-- Cheeks Blush -->
    <ellipse cx="230" cy="262" rx="5" ry="3" fill="#f43f5e" opacity="0.35" />
    <ellipse cx="270" cy="262" rx="5" ry="3" fill="#f43f5e" opacity="0.35" />
    <!-- Beak -->
    <polygon points="250,264 245,257 255,257" fill="#f59e0b" />
  
        
          <!-- Joyful eyes -->
          <path d="M 232 256 Q 238 247 244 256" stroke="#0f172a" stroke-width="3" stroke-linecap="round" fill="none" />
          <path d="M 256 256 Q 262 247 268 256" stroke="#0f172a" stroke-width="3" stroke-linecap="round" fill="none" />
          <!-- Open happy mouth -->
          <path d="M 244 263 Q 250 272 256 263 Z" fill="#e11d48" />
        
        
          <text x="272" y="238" font-size="12" fill="#10b981">♪</text>
          <text x="222" y="240" font-size="10" fill="#f59e0b">✨</text>
        
      </g>
    </svg>